# xmcd
#
# Track frame offsets:
#	182
#	12830
#	25712
#	40432
#	52995
#	68377
#	83140
#	95522
#	106385
#	120130
#
# Disc length: 1793
#
# Revision: 1
# Processed by: cddbd v1.5.1PL0 Copyright (c) Steve Scherf et al.
# Submitted via: CDex 1.50Beta7
# Normalized: r0:DSETVAR2,TDELIM( - )
#
DISCID=6a06ff0a
DTITLE=Various Artist - After Hours Jazz
DYEAR=1900
DGENRE=Jazz
TTITLE0=Illinois Jacquet - Riffin' at 24th Street
TTITLE1=Coleman Hawkins - I Love You
TTITLE2=Artie Shaw - Smoke Gets in Your Eyes
TTITLE3=Oscar Peterson Trio - Poor Butterfly
TTITLE4=Benny Goodman Trio - Where or When
TTITLE5=Lionel Hampton - On the Sunny Side of the Street
TTITLE6=Bunny Berigan - In the Dark
TTITLE7=Count Basie - Shine On, Harvest Moon
TTITLE8=Sidney Bechet - When it's Sleepy Time Down South
TTITLE9=Frankie Newton - The World is Waiting for the Sunrise
EXTD=
EXTT0=
EXTT1=
EXTT2=
EXTT3=
EXTT4=
EXTT5=
EXTT6=
EXTT7=
EXTT8=
EXTT9=
PLAYORDER=
